<?xml version="1.0" standalone="no"?>
<!DOCTYPE svg PUBLIC "-//W3C//DTD SVG 20010904//EN"
 "http://www.w3.org/TR/2001/REC-SVG-20010904/DTD/svg10.dtd">
<svg version="1.0" xmlns="http://www.w3.org/2000/svg"
 width="1184.000000pt" height="1184.000000pt" viewBox="0 0 1184.000000 1184.000000"
 preserveAspectRatio="xMidYMid meet">
<metadata>
Created by potrace 1.14, written by Peter Selinger 2001-2017
</metadata>
<g transform="translate(0.000000,1184.000000) scale(0.100000,-0.100000)"
fill="#000000" stroke="none">
<path d="M4689 10875 c-2 -1 -50 -6 -107 -10 -56 -3 -110 -8 -120 -9 -9 -2
-47 -7 -84 -10 -37 -4 -77 -9 -90 -11 -13 -2 -52 -9 -88 -14 -36 -6 -83 -13
-105 -17 -22 -4 -47 -8 -55 -8 -9 -1 -21 -5 -28 -10 -6 -4 -16 -4 -22 -1 -5 3
-16 3 -22 -2 -14 -8 -30 -12 -68 -18 -14 -1 -26 -4 -27 -5 -3 -3 -2 -2 -58
-15 -22 -4 -46 -10 -52 -12 -7 -1 -19 -4 -25 -6 -7 -2 -22 -6 -33 -10 -11 -3
-31 -8 -45 -11 -43 -8 -140 -38 -285 -88 -77 -26 -147 -50 -155 -52 -18 -5
-122 -48 -280 -116 -124 -53 -395 -193 -500 -258 -14 -9 -26 -15 -28 -14 -1 1
-8 -2 -15 -8 -19 -16 -84 -58 -115 -74 -15 -8 -37 -22 -49 -33 -12 -10 -47
-33 -78 -52 -30 -18 -55 -37 -55 -42 0 -5 -4 -9 -10 -9 -11 0 -173 -120 -178
-132 -2 -4 -8 -8 -13 -8 -6 0 -21 -11 -35 -25 -14 -14 -28 -25 -32 -25 -4 0
-30 -22 -59 -48 -28 -27 -71 -64 -94 -83 -59 -46 -370 -358 -439 -439 -30 -35
-65 -74 -77 -87 -12 -13 -20 -23 -16 -23 3 0 -5 -9 -18 -20 -13 -10 -21 -19
-17 -20 3 0 -8 -15 -25 -34 -42 -44 -217 -282 -217 -295 0 -5 -4 -11 -8 -13
-8 -3 -35 -44 -110 -163 -17 -27 -36 -56 -42 -62 -6 -7 -8 -13 -4 -13 4 0 0
-8 -8 -17 -21 -25 -118 -198 -118 -211 0 -6 -3 -12 -8 -14 -7 -3 -162 -321
-162 -332 0 -4 -9 -25 -19 -49 -90 -201 -239 -659 -267 -824 -6 -32 -12 -61
-23 -108 -5 -22 -12 -56 -15 -75 -3 -19 -8 -45 -10 -56 -5 -23 -11 -64 -21
-129 -4 -22 -8 -51 -10 -64 -3 -14 -7 -52 -10 -85 -3 -34 -8 -72 -10 -86 -13
-75 -20 -256 -19 -500 0 -221 8 -465 15 -465 0 0 2 -16 4 -35 11 -108 25 -207
50 -355 20 -114 23 -130 25 -130 1 0 3 -12 6 -27 9 -63 12 -74 17 -88 5 -13
22 -84 31 -131 2 -8 5 -21 8 -29 3 -8 16 -53 28 -100 12 -47 26 -94 30 -105 5
-11 25 -69 44 -128 48 -146 110 -303 177 -452 13 -27 23 -53 24 -57 0 -4 6
-13 12 -20 7 -6 13 -15 13 -20 0 -9 68 -147 103 -209 14 -25 37 -66 49 -90 13
-24 31 -55 40 -69 8 -14 41 -68 74 -120 32 -52 62 -96 66 -98 4 -2 8 -10 8
-18 0 -8 5 -14 10 -14 6 0 10 -5 10 -10 0 -15 203 -294 265 -364 6 -6 23 -27
39 -46 108 -132 360 -393 493 -510 110 -97 118 -104 162 -140 24 -19 55 -45
70 -56 14 -12 69 -54 121 -93 52 -39 100 -75 106 -79 5 -5 21 -15 34 -22 13
-7 33 -21 44 -31 11 -11 26 -19 33 -19 7 0 13 -4 13 -9 0 -5 9 -13 20 -16 11
-3 26 -12 32 -18 19 -18 118 -77 129 -77 5 0 9 -4 9 -10 0 -5 4 -10 9 -10 5 0
52 -25 105 -55 52 -30 97 -55 100 -55 2 0 31 -15 64 -34 33 -19 63 -32 66 -28
3 3 6 0 6 -7 0 -7 5 -9 10 -6 6 3 10 1 10 -5 0 -6 5 -8 10 -5 6 3 10 1 10 -6
0 -7 3 -9 7 -6 3 4 11 3 17 -2 9 -7 93 -45 211 -96 120 -52 495 -184 568 -200
12 -2 40 -9 62 -15 22 -6 46 -12 53 -12 6 -1 12 -5 12 -10 0 -5 5 -6 10 -3 6
4 25 2 43 -4 17 -6 46 -13 62 -16 17 -3 57 -11 90 -19 33 -8 63 -12 67 -10 3
2 9 0 13 -6 4 -6 11 -8 16 -5 5 4 14 3 21 -1 7 -4 24 -9 38 -10 23 -3 101 -14
125 -19 6 -1 36 -6 69 -9 32 -4 68 -10 81 -12 22 -4 50 -6 235 -21 177 -15
737 -7 850 11 14 3 49 7 78 10 28 3 67 9 85 11 19 3 49 8 68 10 19 2 45 6 59
9 58 11 107 19 133 20 15 0 27 5 27 9 0 5 10 7 23 6 12 -1 29 1 37 4 8 3 92
24 185 46 94 23 177 43 185 46 8 2 74 23 145 46 72 24 132 43 135 44 3 1 14 5
25 10 105 41 172 67 180 69 6 1 33 12 60 25 28 13 55 24 60 25 6 2 45 19 88
40 43 20 81 36 84 36 4 0 14 7 23 15 10 9 28 18 41 20 13 3 25 9 27 15 2 5 9
10 16 10 12 0 292 156 366 204 141 91 201 133 320 221 205 151 264 206 297
275 31 64 44 109 48 160 2 30 5 57 6 60 2 6 2 7 -6 52 -5 33 -17 88 -21 98 -1
3 -5 15 -9 28 -4 12 -12 22 -17 22 -5 0 -6 5 -3 10 3 6 3 10 -2 10 -4 0 -14
13 -20 28 -13 27 -66 87 -114 127 -86 71 -219 110 -349 101 -146 -9 -228 -45
-405 -178 -55 -41 -145 -103 -200 -138 -55 -34 -111 -70 -125 -80 -33 -22 -89
-51 -93 -48 -2 2 -12 -4 -22 -12 -19 -16 -50 -34 -80 -48 -11 -5 -66 -32 -122
-60 -56 -28 -104 -48 -107 -44 -3 3 -6 0 -6 -6 0 -7 -3 -11 -7 -10 -5 1 -26
-7 -48 -17 -22 -10 -43 -19 -47 -20 -5 -2 -10 -4 -13 -5 -3 -1 -8 -3 -12 -5
-5 -1 -19 -6 -33 -12 -60 -25 -197 -73 -215 -75 -11 -2 -26 -7 -32 -11 -11 -7
-94 -31 -143 -42 -8 -2 -16 -4 -17 -5 -2 -2 -7 -4 -13 -5 -5 -1 -12 -4 -15 -5
-3 -1 -14 -4 -25 -5 -11 -1 -21 -3 -22 -5 -6 -4 -44 -12 -65 -13 -13 0 -23 -4
-23 -7 0 -7 -8 -8 -55 -11 -14 -1 -25 -4 -25 -8 0 -3 -12 -7 -27 -8 -34 -2
-148 -20 -148 -23 0 -1 -13 -3 -30 -4 -47 -5 -137 -17 -165 -21 -148 -24 -686
-24 -840 0 -14 2 -47 6 -75 10 -56 6 -100 12 -147 20 -18 4 -42 7 -53 9 -11 2
-36 7 -55 11 -19 5 -44 9 -55 11 -11 1 -20 3 -20 4 0 1 -11 4 -25 6 -32 4
-135 29 -177 43 -18 5 -33 8 -33 5 0 -2 -13 2 -30 11 -16 9 -30 13 -30 9 0 -4
-7 -1 -15 6 -8 7 -15 10 -15 6 0 -3 -12 -1 -27 5 -16 6 -35 12 -43 14 -57 13
-323 117 -429 168 -36 17 -69 30 -73 29 -5 -1 -8 2 -8 6 0 5 -6 9 -12 9 -7 0
-38 15 -68 33 -30 18 -57 32 -60 32 -3 0 -36 19 -75 41 -38 23 -72 42 -75 42
-5 0 -40 23 -180 114 -30 20 -56 39 -58 44 -2 4 -10 7 -18 7 -8 0 -14 3 -14 8
0 4 -18 18 -40 32 -22 13 -40 28 -40 32 0 4 -6 8 -13 8 -7 0 -20 8 -28 18 -9
9 -26 24 -39 32 -12 8 -28 20 -34 25 -6 6 -38 33 -71 61 -102 84 -383 354
-369 354 1 0 -13 15 -31 34 -19 18 -35 38 -35 45 0 7 -5 9 -10 6 -5 -3 -10 -2
-10 3 0 5 -12 22 -26 38 -14 16 -37 45 -52 64 -15 19 -31 40 -37 46 -5 6 -19
23 -30 39 -11 15 -29 39 -40 54 -12 14 -32 43 -45 63 -14 21 -28 38 -32 38 -5
0 -8 5 -8 10 0 6 -17 36 -39 68 -50 74 -95 146 -96 152 0 3 -21 39 -45 80 -24
41 -45 77 -45 80 -1 5 -26 53 -56 107 -10 18 -18 34 -18 36 1 1 -13 33 -30 70
-30 63 -52 115 -56 127 -1 3 -8 21 -17 40 -13 30 -40 104 -43 120 -1 3 -6 16
-12 30 -11 26 -31 85 -38 110 -3 8 -16 53 -30 100 -14 47 -28 94 -30 105 -2
11 -4 21 -6 23 -1 1 -3 7 -4 12 -1 6 -4 13 -5 18 -1 4 -3 12 -4 17 -1 6 -5 24
-9 40 -18 74 -36 164 -52 265 -2 14 -6 36 -9 50 -2 14 -7 52 -11 85 -4 33 -8
74 -10 90 -28 222 -23 752 9 910 2 11 7 45 10 75 6 54 10 79 21 130 3 14 8 40
11 59 3 18 8 43 10 55 3 11 7 32 10 46 3 14 10 43 16 65 6 22 12 47 14 55 1 8
7 30 12 48 6 18 11 36 12 40 0 4 10 39 22 77 12 39 23 73 24 78 1 4 2 8 4 10
1 1 3 10 5 19 4 21 50 144 75 203 10 22 23 58 31 80 7 22 19 47 26 56 7 8 13
22 13 30 0 8 9 29 20 47 11 17 17 32 14 32 -3 0 4 13 15 29 11 15 18 30 15 33
-2 3 2 11 11 18 8 7 15 20 15 29 0 9 9 27 20 41 11 14 20 29 20 33 0 12 106
191 172 290 32 48 58 90 58 93 0 3 6 11 13 18 6 7 21 25 32 40 121 169 257
327 416 485 64 64 129 127 145 141 89 76 224 188 248 205 16 11 50 37 77 58
27 20 53 37 58 37 5 0 11 4 13 9 3 7 121 87 173 117 11 6 36 20 55 32 81 49
134 77 142 74 4 -1 8 2 8 6 0 4 60 36 133 71 72 35 140 68 149 72 49 25 342
136 378 144 3 1 31 9 64 19 32 10 64 19 70 21 6 1 18 5 26 8 17 7 94 27 125
33 11 2 31 7 45 10 14 3 36 8 50 9 14 2 27 4 30 6 3 1 10 3 15 4 6 2 12 4 15
5 12 4 48 11 90 16 55 7 85 12 85 14 0 4 44 10 101 15 34 3 71 8 83 10 61 12
240 19 436 18 190 -2 370 -8 370 -13 0 -1 20 -4 45 -6 25 -1 56 -5 70 -8 14
-2 45 -7 70 -11 25 -3 54 -8 65 -10 11 -2 40 -6 65 -9 25 -4 54 -9 65 -13 11
-3 29 -7 40 -9 11 -2 31 -6 45 -9 14 -3 36 -8 50 -11 14 -3 33 -7 42 -10 9 -3
25 -7 35 -9 10 -2 45 -11 78 -20 33 -9 65 -18 70 -19 6 -2 17 -6 25 -9 8 -3
53 -18 100 -32 99 -32 294 -109 395 -156 39 -18 72 -33 75 -34 20 -7 52 -23
93 -47 26 -15 47 -25 47 -22 0 3 13 -4 29 -15 16 -12 32 -21 36 -21 3 0 26
-14 51 -30 24 -17 44 -28 44 -25 0 3 23 -11 50 -30 28 -19 50 -32 50 -28 0 5
4 3 8 -2 4 -6 27 -24 52 -40 25 -17 47 -33 48 -37 2 -5 10 -8 18 -8 8 0 14 -4
14 -10 0 -5 7 -10 15 -10 8 0 15 -4 15 -10 0 -5 4 -10 10 -10 5 0 48 -29 95
-66 86 -66 211 -131 262 -137 16 -2 34 -6 40 -10 24 -15 208 0 268 21 119 43
222 132 273 232 15 30 32 58 37 62 6 4 7 8 3 8 -4 0 -3 12 3 27 6 15 12 51 13
79 2 29 6 57 10 62 3 5 3 12 -1 16 -3 3 -7 21 -9 40 -2 43 -30 118 -61 168
-24 40 -117 138 -130 138 -5 0 -26 16 -48 35 -43 38 -301 225 -310 225 -3 0
-15 9 -27 20 -12 11 -28 20 -35 20 -7 0 -13 5 -13 10 0 6 -7 10 -15 10 -8 0
-15 4 -15 8 0 4 -12 13 -27 20 -16 6 -62 32 -103 58 -41 25 -113 66 -160 91
-47 25 -89 49 -94 54 -6 5 -16 9 -24 9 -8 0 -27 9 -43 21 -16 11 -29 17 -29
13 0 -4 -8 0 -18 9 -10 10 -22 14 -25 10 -4 -3 -7 0 -7 7 0 7 -2 11 -6 8 -3
-3 -32 7 -65 23 -32 16 -62 29 -64 29 -3 0 -27 9 -53 21 -80 36 -85 38 -157
65 -82 31 -388 132 -419 139 -11 2 -44 11 -73 18 -28 8 -54 12 -57 9 -3 -3 -6
-1 -6 4 0 5 -8 10 -17 11 -10 0 -61 11 -113 23 -52 12 -106 23 -120 25 -14 2
-27 4 -30 5 -3 1 -9 3 -15 5 -5 1 -12 3 -15 4 -6 3 -24 6 -105 16 -33 4 -63 9
-66 11 -4 2 -33 6 -65 9 -33 3 -66 8 -74 10 -8 2 -53 7 -100 11 -47 3 -96 8
-110 11 -30 5 -646 13 -651 8z"/>
<path d="M9381 8097 c-77 -25 -156 -98 -191 -175 -19 -43 -24 -69 -23 -133 1
-44 6 -86 12 -93 6 -7 9 -15 6 -18 -3 -3 1 -11 10 -18 8 -7 15 -19 15 -27 0
-8 344 -360 765 -781 508 -508 761 -768 753 -773 -6 -4 -20 -3 -29 2 -12 6
-20 5 -24 -1 -5 -8 -11 -8 -20 0 -10 8 -15 8 -20 0 -4 -7 -11 -8 -18 -2 -7 5
-21 6 -32 2 -11 -4 -30 -4 -42 1 -15 5 -23 5 -23 -2 0 -6 -7 -6 -20 1 -14 8
-20 8 -20 0 0 -7 -6 -8 -19 0 -14 7 -22 7 -26 0 -5 -8 -11 -8 -20 0 -10 8 -15
8 -20 0 -4 -7 -11 -8 -18 -2 -7 5 -21 6 -32 2 -11 -4 -30 -4 -42 1 -15 5 -23
5 -23 -2 0 -6 -7 -6 -20 1 -14 8 -20 8 -20 0 0 -7 -6 -8 -19 0 -14 7 -22 7
-26 0 -5 -8 -11 -8 -20 0 -10 8 -15 8 -20 0 -4 -7 -11 -8 -18 -2 -7 5 -21 6
-32 2 -11 -4 -30 -4 -42 1 -15 5 -23 5 -23 -2 0 -6 -7 -6 -20 1 -14 8 -20 8
-20 0 0 -7 -6 -8 -19 0 -14 7 -22 7 -26 0 -5 -8 -11 -8 -20 0 -10 8 -15 8 -20
0 -4 -7 -11 -8 -18 -2 -7 5 -21 6 -32 2 -11 -4 -30 -4 -42 1 -15 5 -23 5 -23
-2 0 -6 -6 -6 -17 -1 -10 5 -27 6 -38 2 -11 -4 -30 -4 -42 1 -15 5 -23 5 -23
-2 0 -6 -7 -6 -20 1 -14 8 -20 8 -20 0 0 -8 -6 -8 -20 0 -14 8 -26 8 -40 0
-14 -8 -20 -8 -20 0 0 8 -6 8 -20 0 -14 -8 -20 -8 -20 0 0 8 -6 8 -20 0 -14
-8 -20 -8 -20 0 0 8 -6 8 -20 0 -14 -8 -20 -8 -20 0 0 8 -6 8 -20 0 -14 -8
-20 -8 -20 0 0 8 -6 8 -20 0 -14 -8 -20 -8 -20 0 0 8 -6 8 -20 0 -14 -8 -20
-8 -20 0 0 8 -6 8 -20 0 -14 -8 -20 -8 -20 0 0 8 -6 8 -20 0 -14 -8 -20 -8
-20 0 0 8 -6 8 -20 0 -14 -8 -20 -8 -20 0 0 8 -6 8 -20 0 -14 -8 -20 -8 -20 0
0 8 -6 8 -20 0 -14 -8 -20 -8 -20 0 0 8 -6 8 -20 0 -14 -8 -20 -8 -20 0 0 8
-6 8 -20 0 -14 -8 -20 -8 -20 0 0 8 -6 8 -20 0 -14 -8 -20 -8 -20 0 0 7 -6 8
-17 2 -10 -5 -29 -6 -43 -2 -14 4 -35 3 -47 -1 -14 -5 -23 -5 -23 1 0 6 -10 6
-26 0 -16 -7 -23 -7 -19 0 4 7 -2 7 -19 0 -15 -5 -28 -6 -31 0 -3 5 -15 6 -28
1 -12 -5 -32 -5 -44 0 -14 5 -23 5 -23 -2 0 -6 -7 -6 -20 1 -14 8 -20 8 -20 0
0 -7 -6 -8 -19 0 -14 7 -22 7 -26 0 -5 -8 -11 -8 -20 0 -10 8 -15 8 -20 0 -4
-7 -11 -8 -18 -2 -7 5 -21 6 -32 2 -11 -4 -30 -4 -42 1 -15 5 -23 5 -23 -2 0
-6 -6 -6 -18 0 -11 6 -24 6 -35 0 -11 -7 -17 -7 -17 0 0 7 -8 7 -22 2 -13 -5
-33 -5 -45 0 -14 5 -23 5 -23 -2 0 -6 -7 -6 -20 1 -14 8 -20 8 -20 0 0 -7 -6
-8 -19 0 -14 7 -22 7 -26 0 -5 -8 -11 -8 -20 0 -10 8 -15 8 -20 0 -4 -7 -11
-8 -18 -2 -7 5 -21 6 -32 2 -11 -4 -30 -4 -42 1 -15 5 -23 5 -23 -2 0 -6 -7
-6 -20 1 -14 8 -20 8 -20 0 0 -7 -6 -8 -19 0 -14 7 -22 7 -26 0 -5 -8 -11 -8
-20 0 -10 8 -15 8 -20 0 -4 -7 -11 -8 -18 -2 -7 5 -21 6 -32 2 -11 -4 -30 -4
-42 1 -15 5 -23 5 -23 -2 0 -6 -5 -7 -11 -4 -16 11 -69 12 -69 3 0 -5 -9 -4
-20 2 -14 8 -26 8 -40 0 -14 -8 -20 -8 -20 0 0 8 -6 8 -20 0 -14 -8 -20 -8
-20 0 0 8 -6 8 -20 0 -14 -8 -20 -8 -20 0 0 8 -6 8 -20 0 -14 -8 -20 -8 -20 0
0 8 -6 8 -20 0 -14 -8 -20 -8 -20 0 0 8 -6 8 -20 0 -14 -8 -20 -8 -20 0 0 8
-6 8 -20 0 -14 -8 -20 -8 -20 0 0 8 -6 8 -20 0 -14 -8 -20 -8 -20 0 0 8 -6 8
-20 0 -14 -8 -20 -8 -20 0 0 8 -6 8 -20 0 -14 -8 -20 -8 -20 0 0 8 -6 8 -20 0
-14 -8 -20 -8 -20 0 0 8 -6 8 -20 0 -14 -8 -20 -8 -20 0 0 8 -6 8 -20 0 -14
-8 -20 -8 -20 0 0 8 -6 8 -20 0 -14 -8 -20 -8 -20 0 0 8 -6 8 -20 0 -14 -8
-20 -8 -20 0 0 7 -6 8 -17 2 -18 -9 -50 -8 -60 2 -3 3 -14 1 -24 -5 -13 -6
-19 -6 -19 0 0 7 -9 7 -25 1 -16 -6 -25 -6 -25 1 0 6 -6 6 -18 0 -11 -6 -24
-6 -32 -1 -9 5 -19 5 -26 -1 -8 -7 -14 -6 -19 1 -5 8 -10 8 -20 0 -9 -7 -15
-8 -19 -1 -4 6 -15 7 -29 2 -12 -5 -32 -5 -44 0 -14 5 -23 5 -23 -2 0 -6 -7
-6 -20 1 -14 8 -20 8 -20 0 0 -7 -6 -8 -19 0 -14 7 -22 7 -26 0 -5 -8 -11 -8
-20 0 -10 8 -15 8 -20 0 -4 -7 -11 -8 -18 -2 -7 5 -21 6 -32 2 -11 -4 -30 -4
-42 1 -15 5 -23 5 -23 -2 0 -6 -7 -6 -20 1 -14 8 -20 8 -20 0 0 -7 -6 -8 -19
0 -14 7 -22 7 -26 0 -5 -8 -11 -8 -20 0 -10 8 -15 8 -20 0 -4 -7 -11 -8 -18
-2 -7 5 -21 6 -32 2 -11 -4 -30 -4 -42 1 -15 5 -23 5 -23 -2 0 -6 -7 -6 -20 1
-14 8 -20 8 -20 0 0 -7 -6 -8 -19 0 -14 7 -22 7 -26 0 -5 -8 -11 -8 -20 0 -10
8 -15 8 -20 0 -4 -7 -11 -8 -18 -2 -7 5 -21 6 -32 2 -11 -4 -30 -4 -42 1 -15
5 -23 5 -23 -2 0 -6 -6 -6 -17 -1 -10 5 -27 6 -38 2 -11 -4 -30 -4 -42 1 -15
5 -23 5 -23 -2 0 -6 -7 -6 -20 1 -14 8 -20 8 -20 0 0 -8 -6 -8 -20 0 -14 8
-26 8 -40 0 -14 -8 -20 -8 -20 0 0 8 -6 8 -20 0 -14 -8 -20 -8 -20 0 0 8 -6 8
-20 0 -14 -8 -20 -8 -20 0 0 8 -6 8 -20 0 -14 -8 -20 -8 -20 0 0 8 -6 8 -20 0
-14 -8 -20 -8 -20 0 0 8 -6 8 -20 0 -14 -8 -20 -8 -20 0 0 8 -6 8 -20 0 -14
-8 -20 -8 -20 0 0 8 -6 8 -20 0 -14 -8 -20 -8 -20 0 0 8 -6 8 -20 0 -14 -8
-20 -8 -20 0 0 8 -6 8 -20 0 -14 -8 -20 -8 -20 0 0 8 -6 8 -20 0 -14 -8 -20
-8 -20 0 0 8 -6 8 -20 0 -14 -8 -20 -8 -20 0 0 8 -6 8 -20 0 -14 -8 -20 -8
-20 0 0 8 -6 8 -20 0 -14 -8 -20 -8 -20 0 0 8 -6 8 -20 0 -13 -7 -20 -7 -20
-1 0 18 -31 -1 -39 -23 -5 -11 -5 -33 0 -48 4 -16 5 -28 1 -28 -4 0 -7 -11 -7
-25 0 -14 3 -25 7 -25 4 0 3 -11 -2 -25 -6 -17 -6 -25 1 -25 6 0 7 -6 0 -17
-5 -10 -5 -26 0 -40 5 -14 5 -23 -1 -23 -6 0 -6 -10 0 -26 6 -14 7 -23 2 -21
-4 3 -7 -8 -7 -23 0 -15 3 -26 7 -23 5 2 4 -7 -2 -21 -6 -16 -6 -26 0 -26 6 0
6 -9 0 -25 -6 -16 -6 -25 1 -25 6 0 6 -7 -1 -20 -8 -14 -8 -20 0 -20 7 0 8 -6
0 -19 -6 -13 -7 -22 0 -26 5 -3 6 -15 1 -28 -9 -27 -3 -59 10 -51 6 3 16 1 24
-6 9 -7 15 -8 20 0 4 7 12 7 26 0 13 -8 19 -7 19 0 0 8 6 8 20 0 11 -6 20 -7
20 -3 0 4 11 8 25 8 14 0 25 -3 25 -7 0 -4 11 -3 25 2 16 6 25 6 25 0 0 -6 10
-6 26 0 14 6 23 7 21 2 -3 -4 8 -7 24 -7 16 0 29 4 29 8 0 4 9 3 20 -3 11 -6
20 -7 20 -3 0 4 11 8 25 8 14 0 25 -3 25 -7 0 -4 12 -3 26 2 14 6 23 7 21 2
-3 -4 19 -7 49 -7 30 0 54 4 54 8 0 4 9 3 20 -3 11 -6 20 -7 20 -3 0 4 11 8
25 8 14 0 25 -3 25 -7 0 -4 11 -3 25 2 16 6 25 6 25 0 0 -6 10 -6 26 0 14 6
23 7 21 2 -3 -4 8 -7 24 -7 16 0 29 4 29 8 0 4 9 3 20 -3 11 -6 20 -7 20 -3 0
4 11 8 25 8 14 0 25 -3 25 -7 0 -4 12 -3 26 2 14 6 23 7 21 2 -3 -4 19 -7 49
-7 30 0 54 4 54 8 0 4 9 3 20 -3 11 -6 20 -7 20 -3 0 4 11 8 25 8 14 0 25 -3
25 -7 0 -4 11 -3 25 2 16 6 25 6 25 0 0 -6 10 -6 26 0 14 6 23 7 21 2 -3 -4 8
-7 24 -7 16 0 29 4 29 8 0 5 5 5 11 2 15 -10 128 -12 122 -3 -2 5 7 4 21 -2
16 -6 26 -6 26 0 0 6 9 6 25 0 16 -6 26 -6 31 1 4 7 10 6 19 -1 9 -8 15 -8 20
0 4 7 12 7 26 0 13 -8 19 -7 19 0 0 7 6 8 19 0 13 -6 22 -7 26 0 4 6 15 6 30
0 16 -6 25 -6 25 1 0 6 6 6 18 0 11 -6 24 -6 32 -1 9 5 19 5 26 -1 8 -7 14 -6
19 1 4 7 12 7 26 0 13 -8 19 -7 19 0 0 7 6 8 19 0 13 -6 22 -7 26 0 4 6 15 6
30 0 16 -6 25 -6 25 0 0 6 9 6 25 0 16 -6 26 -6 31 1 4 7 10 6 19 -1 9 -8 15
-8 20 0 4 7 12 7 26 0 13 -8 19 -7 19 0 0 7 6 8 19 0 13 -6 22 -7 26 0 4 6 15
6 30 0 16 -6 25 -6 25 1 0 6 6 6 18 0 11 -6 24 -6 32 -1 9 5 19 5 26 -1 8 -7
14 -6 19 1 4 7 12 7 26 0 13 -8 19 -7 19 0 0 7 6 8 19 0 13 -6 22 -7 26 0 4 6
15 6 30 0 16 -6 25 -6 25 0 0 6 9 6 25 0 15 -6 26 -6 30 1 4 5 12 6 18 2 16
-10 48 -10 70 0 10 5 17 4 17 -3 0 -8 6 -8 20 0 14 8 20 8 20 0 0 -8 6 -8 20
0 14 8 20 8 20 0 0 -8 6 -8 20 0 14 8 20 8 20 0 0 -8 6 -8 20 0 14 8 20 8 20
0 0 -8 6 -8 20 0 14 8 20 8 20 0 0 -8 6 -8 20 0 14 8 20 8 20 0 0 -8 6 -8 20
0 14 8 20 8 20 0 0 -8 6 -8 20 0 14 8 20 8 20 0 0 -8 6 -8 20 0 14 8 20 8 20
0 0 -8 6 -8 20 0 14 8 20 8 20 0 0 -8 6 -8 20 0 14 8 20 8 20 0 0 -8 6 -8 20
0 14 8 20 8 20 0 0 -8 6 -8 20 0 14 8 20 8 20 0 0 -8 6 -8 20 0 14 8 20 8 20
0 0 -8 6 -8 20 0 14 8 20 8 20 0 0 -8 6 -8 20 0 14 8 20 8 20 0 0 -8 6 -8 20
0 14 8 20 8 20 0 0 -8 6 -8 20 0 14 8 20 8 20 0 0 -8 6 -8 20 0 14 8 20 8 20
0 0 -8 6 -8 20 0 14 8 20 8 20 0 0 -8 6 -8 20 0 14 8 20 8 20 0 0 -8 6 -8 20
0 14 8 20 8 20 0 0 -8 6 -8 20 0 14 8 20 8 20 0 0 -8 6 -8 20 0 14 8 20 8 20
0 0 -8 6 -8 20 0 14 8 20 8 20 0 0 -8 6 -8 20 0 14 8 20 8 20 0 0 -8 6 -8 20
0 14 8 20 8 20 0 0 -8 6 -8 20 0 14 8 20 8 20 0 0 -8 6 -8 20 0 14 8 20 8 20
0 0 -8 6 -8 20 0 14 8 20 8 20 0 0 -6 5 -8 11 -5 15 10 79 12 79 3 0 -3 14 -3
30 2 19 5 30 5 30 -1 0 -6 8 -5 20 1 14 8 20 8 20 0 0 -7 6 -8 19 0 13 7 22 7
26 0 4 -7 12 -7 25 0 13 7 21 7 25 0 4 -7 13 -7 26 0 12 7 19 7 19 1 0 -6 11
-6 30 -1 19 5 30 5 30 -1 0 -6 7 -6 19 1 14 7 22 7 26 0 5 -8 11 -8 20 0 9 8
15 8 20 0 4 -7 12 -7 25 0 13 7 21 7 25 0 4 -7 13 -7 26 0 12 7 19 7 19 1 0
-6 11 -6 30 -1 19 5 30 5 30 -1 0 -6 8 -5 20 1 14 8 20 8 20 0 0 -7 6 -8 19 0
13 7 22 7 26 0 4 -7 12 -7 25 0 13 7 21 7 25 0 4 -7 13 -7 26 0 12 7 19 7 19
1 0 -6 11 -6 30 -1 19 5 30 5 30 -1 0 -6 7 -6 19 1 14 7 22 7 26 0 5 -8 11 -8
20 0 9 8 15 8 20 0 4 -7 12 -7 25 0 13 7 21 7 25 0 4 -7 13 -7 26 0 12 7 19 7
19 1 0 -6 11 -6 30 -1 19 5 30 5 30 -1 0 -6 8 -5 20 1 14 8 20 8 20 0 0 -7 6
-8 19 0 13 7 22 7 26 0 4 -7 12 -7 25 0 13 7 21 7 25 0 4 -7 13 -7 26 0 12 7
19 7 19 1 0 -6 11 -6 30 -1 19 5 30 5 30 -1 0 -6 7 -6 19 1 14 7 22 7 26 0 5
-8 11 -8 20 0 9 8 15 8 20 0 4 -7 12 -7 25 0 13 7 21 7 25 0 4 -7 13 -7 26 0
12 7 19 7 19 1 0 -6 11 -6 30 -1 19 5 30 5 30 -1 0 -6 8 -5 20 1 14 8 20 8 20
0 0 -7 6 -8 19 0 13 7 22 7 26 0 4 -7 12 -7 25 0 13 7 21 7 25 0 4 -7 13 -7
26 0 12 7 19 7 19 1 0 -6 7 -8 15 -5 8 3 18 3 23 0 5 -3 -334 -349 -754 -769
-496 -497 -765 -773 -769 -790 -4 -15 -12 -27 -18 -27 -6 0 -7 -3 -4 -7 4 -3
2 -12 -4 -19 -10 -12 -15 -114 -7 -169 7 -50 50 -125 96 -165 69 -61 125 -83
213 -83 148 0 64 -75 1248 1111 847 846 1062 1067 1082 1107 34 72 34 199 -1
270 -19 40 -246 272 -1080 1106 -686 687 -1069 1063 -1095 1076 -85 43 -166
49 -254 20z"/>
</g>
</svg>
