<svg width="37" height="31" viewBox="0 0 37 31" fill="none" xmlns="http://www.w3.org/2000/svg">
<path d="M25.3641 25.3641C25.9695 25.9695 25.9739 26.9578 25.3112 27.4996C23.3514 29.102 21.0222 30.2052 18.5239 30.7022C15.5172 31.3002 12.4007 30.9933 9.56841 29.8201C6.73615 28.647 4.31538 26.6603 2.61222 24.1113C0.909059 21.5624 1.88807e-07 18.5656 0 15.5C-1.88807e-07 12.4344 0.909059 9.43762 2.61222 6.88866C4.31538 4.3397 6.73615 2.35303 9.56841 1.17987C12.4007 0.00670929 15.5172 -0.300243 18.5239 0.297828C21.0222 0.794763 23.3514 1.89797 25.3112 3.50037C25.9739 4.04223 25.9694 5.03055 25.3641 5.63586C24.7588 6.24117 23.7826 6.23221 23.1065 5.70709C21.5905 4.52953 19.8157 3.71551 17.9191 3.33826C15.5138 2.85981 13.0205 3.10537 10.7547 4.04389C8.48892 4.98242 6.55231 6.57176 5.18978 8.61093C3.82725 10.6501 3.1 13.0475 3.1 15.5C3.1 17.9525 3.82725 20.3499 5.18978 22.3891C6.55231 24.4282 8.48892 26.0176 10.7547 26.9561C13.0205 27.8946 15.5138 28.1402 17.9191 27.6617C19.8157 27.2845 21.5905 26.4705 23.1065 25.2929C23.7826 24.7678 24.7588 24.7588 25.3641 25.3641Z" fill="url(#paint0_linear_0_390)"/>
<path d="M36.7071 16.7071C37.0976 16.3166 37.0976 15.6834 36.7071 15.2929L30.3431 8.92893C29.9526 8.53841 29.3195 8.53841 28.9289 8.92893C28.5384 9.31946 28.5384 9.95262 28.9289 10.3431L34.5858 16L28.9289 21.6569C28.5384 22.0474 28.5384 22.6805 28.9289 23.0711C29.3195 23.4616 29.9526 23.4616 30.3431 23.0711L36.7071 16.7071ZM16 17L36 17L36 15L16 15L16 17Z" fill="black"/>
<defs>
<linearGradient id="paint0_linear_0_390" x1="0" y1="15.5" x2="31" y2="15.5" gradientUnits="userSpaceOnUse">
<stop stop-color="#4FACFE"/>
<stop offset="1" stop-color="#00F2FE"/>
</linearGradient>
</defs>
</svg>
