<svg width="37" height="31" fill="none" xmlns="http://www.w3.org/2000/svg"><path d="M25.364 25.364c.605.605.61 1.594-.053 2.136a15.5 15.5 0 1 1 0-24c.663.542.658 1.53.053 2.136-.605.605-1.581.596-2.258.071a12.4 12.4 0 1 0 0 19.586c.677-.525 1.653-.534 2.258.071Z" fill="url(#a)"/><path d="M36.707 16.707a1 1 0 0 0 0-1.414l-6.364-6.364a1 1 0 0 0-1.414 1.414L34.586 16l-5.657 5.657a1 1 0 0 0 1.414 1.414l6.364-6.364ZM16 17h20v-2H16v2Z" fill="#000"/><defs><linearGradient id="a" x1="0" y1="15.5" x2="31" y2="15.5" gradientUnits="userSpaceOnUse"><stop stop-color="#4FACFE"/><stop offset="1" stop-color="#00F2FE"/></linearGradient></defs></svg>